<?xml version="1.0" encoding="utf-8"?>
<!-- Generator: Adobe Illustrator 21.0.0, SVG Export Plug-In . SVG Version: 6.00 Build 0)  -->
<svg version="1.1" id="图层_1" xmlns="http://www.w3.org/2000/svg" xmlns:xlink="http://www.w3.org/1999/xlink" x="0px" y="0px"
	 viewBox="0 0 100 100" style="enable-background:new 0 0 100 100;" xml:space="preserve">
<style type="text/css">
	.st0{fill:#DDDDDD;}
</style>
<path class="st0" d="M92.1,6.6H7.9C3.4,6.6,0,10,0,14.4v73.4c0,4.2,3.4,7.9,7.9,7.9h84.2c4.2,0,7.9-3.7,7.9-7.9V14.4
	C100,10.2,96.6,6.6,92.1,6.6z M25.8,20c4.5,0,8.4,3.7,8.4,8.4s-3.7,8.4-8.4,8.4c-4.5,0-8.4-3.7-8.4-8.4S21.3,20,25.8,20L25.8,20z
	 M19.7,83.9c-0.8,0-1.6-0.3-2.4-0.8c-1.6-1.3-1.6-3.2-0.3-4.7l16.3-22.9c1.3-1.3,3.2-1.6,4.7-0.5l14.2,10l25.5-27.4
	c1.3-1.3,7.6-8.2,11.3-0.5v46.6C89.2,83.9,19.7,83.9,19.7,83.9z"/>
</svg>
